<svg width="16" height="16" viewBox="0 0 16 16" fill="none" xmlns="http://www.w3.org/2000/svg">
<path d="M6.66668 12C7.84999 11.9997 8.99921 11.6036 9.93134 10.8746L12.862 13.8053L13.8047 12.8626L10.874 9.93198C11.6033 8.99976 11.9997 7.85027 12 6.66665C12 3.72598 9.60734 1.33331 6.66668 1.33331C3.72601 1.33331 1.33334 3.72598 1.33334 6.66665C1.33334 9.60731 3.72601 12 6.66668 12ZM6.66668 2.66665C8.87268 2.66665 10.6667 4.46065 10.6667 6.66665C10.6667 8.87265 8.87268 10.6666 6.66668 10.6666C4.46068 10.6666 2.66668 8.87265 2.66668 6.66665C2.66668 4.46065 4.46068 2.66665 6.66668 2.66665Z" fill="black"/>
</svg>
